<svg width="1200" height="900" viewBox="0 0 1200 900" fill="none" xmlns="http://www.w3.org/2000/svg">
  <rect width="1200" height="900" fill="#091530"/>
  <rect width="1200" height="900" fill="url(#paint0_linear_7_2)"/>
  <circle cx="980" cy="172" r="210" fill="#FFCF24" fill-opacity="0.12"/>
  <rect x="122" y="148" width="956" height="604" rx="34" fill="#0D1D49" fill-opacity="0.85" stroke="#35528D"/>
  <rect x="194" y="222" width="812" height="458" rx="28" fill="#0A1638"/>
  <path d="M248 590C312 566 382 468 452 468C522 468 562 564 634 564C706 564 760 344 838 344C902 344 948 434 980 476" stroke="#FFCF24" stroke-width="10" stroke-linecap="round"/>
  <path d="M248 534C330 534 388 432 464 432C540 432 596 510 672 510C748 510 818 400 900 400C930 400 958 410 980 424" stroke="#8EE3F5" stroke-width="6" stroke-linecap="round" stroke-dasharray="3 16"/>
  <rect x="246" y="260" width="146" height="18" rx="9" fill="#324E89"/>
  <rect x="792" y="260" width="154" height="18" rx="9" fill="#324E89"/>
  <circle cx="452" cy="468" r="14" fill="#F6F4EF"/>
  <circle cx="634" cy="564" r="14" fill="#8EE3F5"/>
  <circle cx="838" cy="344" r="14" fill="#FFCF24"/>
  <defs>
    <linearGradient id="paint0_linear_7_2" x1="88" y1="68" x2="1082" y2="832" gradientUnits="userSpaceOnUse">
      <stop stop-color="#0A173A"/>
      <stop offset="1" stop-color="#10295B"/>
    </linearGradient>
  </defs>
</svg>
