<svg width="1600" height="900" viewBox="0 0 1600 900" fill="none" xmlns="http://www.w3.org/2000/svg">
  <rect width="1600" height="900" fill="#07112E"/>
  <rect width="1600" height="900" fill="url(#paint0_linear_1_2)"/>
  <circle cx="1268" cy="156" r="298" fill="#FFCF24" fill-opacity="0.18"/>
  <circle cx="302" cy="708" r="248" fill="#4DD0E1" fill-opacity="0.16"/>
  <path d="M94 718C262 558 460 506 668 530C876 554 1070 682 1360 626" stroke="url(#paint1_linear_1_2)" stroke-width="14" stroke-linecap="round"/>
  <path d="M162 628C330 508 520 470 710 490C900 510 1072 616 1302 586" stroke="#8EE3F5" stroke-opacity="0.52" stroke-width="6" stroke-linecap="round" stroke-dasharray="3 18"/>
  <g opacity="0.88">
    <rect x="876" y="208" width="460" height="286" rx="28" fill="#0D1C47" fill-opacity="0.82" stroke="#5FCDE0" stroke-opacity="0.36"/>
    <rect x="908" y="252" width="128" height="160" rx="16" fill="#11285D"/>
    <rect x="1058" y="252" width="244" height="28" rx="14" fill="#20366E"/>
    <rect x="1058" y="298" width="188" height="18" rx="9" fill="#37518C"/>
    <rect x="1058" y="332" width="212" height="18" rx="9" fill="#37518C"/>
    <rect x="1058" y="366" width="154" height="18" rx="9" fill="#37518C"/>
    <rect x="1058" y="418" width="202" height="28" rx="14" fill="#FFCF24" fill-opacity="0.92"/>
  </g>
  <g opacity="0.9">
    <rect x="238" y="168" width="358" height="218" rx="28" fill="#0C183C" fill-opacity="0.86" stroke="#FFCF24" stroke-opacity="0.34"/>
    <path d="M286 328H548" stroke="#2D4C89" stroke-width="10" stroke-linecap="round"/>
    <path d="M286 294H510" stroke="#2D4C89" stroke-width="10" stroke-linecap="round"/>
    <path d="M286 260H462" stroke="#2D4C89" stroke-width="10" stroke-linecap="round"/>
    <circle cx="524" cy="252" r="40" fill="#FFCF24" fill-opacity="0.18"/>
    <circle cx="524" cy="252" r="18" fill="#FFCF24"/>
  </g>
  <g opacity="0.75">
    <circle cx="1190" cy="680" r="96" fill="#102557"/>
    <circle cx="1190" cy="680" r="72" stroke="#5FCDE0" stroke-width="2"/>
    <circle cx="1190" cy="680" r="48" stroke="#5FCDE0" stroke-opacity="0.62" stroke-width="2"/>
    <circle cx="1190" cy="680" r="12" fill="#FFCF24"/>
  </g>
  <defs>
    <linearGradient id="paint0_linear_1_2" x1="121" y1="72" x2="1410" y2="852" gradientUnits="userSpaceOnUse">
      <stop stop-color="#0A183C"/>
      <stop offset="0.48" stop-color="#102759"/>
      <stop offset="1" stop-color="#061028"/>
    </linearGradient>
    <linearGradient id="paint1_linear_1_2" x1="94" y1="624" x2="1360" y2="624" gradientUnits="userSpaceOnUse">
      <stop stop-color="#FFCF24"/>
      <stop offset="0.52" stop-color="#8EE3F5"/>
      <stop offset="1" stop-color="#FFCF24"/>
    </linearGradient>
  </defs>
</svg>
