<svg width="900" height="675" viewBox="0 0 900 675" fill="none" xmlns="http://www.w3.org/2000/svg">
  <rect width="900" height="675" fill="#F0E8DA"/>
  <rect width="900" height="675" fill="url(#paint0_linear_8_2)"/>
  <circle cx="692" cy="122" r="138" fill="#FFCF24" fill-opacity="0.18"/>
  <rect x="184" y="120" width="532" height="456" rx="48" fill="#F8F4ED"/>
  <circle cx="450" cy="254" r="106" fill="#11285D"/>
  <path d="M300 518C324 410 380 352 450 352C520 352 576 410 600 518" fill="#11285D"/>
  <path d="M360 242C360 194.608 398.608 156 446 156H454C501.392 156 540 194.608 540 242V286C540 333.392 501.392 372 454 372H446C398.608 372 360 333.392 360 286V242Z" fill="#C98352"/>
  <path d="M350 234C350 175.458 397.458 128 456 128C514.542 128 562 175.458 562 234V248H350V234Z" fill="#091530"/>
  <path d="M352 516C382 430 408 390 450 390C492 390 518 430 548 516" stroke="#FFCF24" stroke-width="14" stroke-linecap="round"/>
  <defs>
    <linearGradient id="paint0_linear_8_2" x1="90" y1="60" x2="760" y2="624" gradientUnits="userSpaceOnUse">
      <stop stop-color="#F8F2E8"/>
      <stop offset="1" stop-color="#E5D8C4"/>
    </linearGradient>
  </defs>
</svg>
